Coordinates
version=1
nRows=38
nColumns=38
inDegrees=no

Units are S.I. units (second, meters, Newtons, ...)
If the header above contains a line with 'inDegrees', this indicates whether rotational values are in degrees (yes) or radians (no).

endheader
time	pelvis_tilt	pelvis_list	pelvis_rotation	pelvis_tx	pelvis_ty	pelvis_tz	hip_flexion_r	hip_adduction_r	hip_rotation_r	knee_angle_r	ankle_angle_r	subtalar_angle_r	mtp_angle_r	hip_flexion_l	hip_adduction_l	hip_rotation_l	knee_angle_l	ankle_angle_l	subtalar_angle_l	mtp_angle_l	lumbar_extension	lumbar_bending	lumbar_rotation	arm_flex_r	arm_add_r	arm_rot_r	elbow_flex_r	pro_sup_r	wrist_flex_r	wrist_dev_r	arm_flex_l	arm_add_l	arm_rot_l	elbow_flex_l	pro_sup_l	wrist_flex_l	wrist_dev_l
0	2.95287	1.31719	-1.26208	0.727607	0.141021	0.950077	0.197055	-0.125801	-0.345448	1.0224	-0.331353	0	0	-0.199529	-0.056794	-0.272882	0.54358	-0.0550087	0	0	-0.504608	0.163643	-0.0333555	-0.22064	-0.66669	0.574725	0.966443	0.759886	0	0	-0.192558	-0.0848296	-0.203214	0.65843	1.5708	0	0
0.01	2.95565	1.32246	-1.26274	0.727253	0.149011	0.949182	0.216149	-0.131132	-0.355903	0.988578	-0.330266	0	0	-0.207888	-0.0539454	-0.267565	0.535086	-0.0525133	0	0	-0.497428	0.164518	-0.0286508	-0.221681	-0.673863	0.587209	0.970668	0.72092	0	0	-0.181112	-0.088702	-0.186369	0.644717	1.5708	0	0
0.02	2.95757	1.32638	-1.2618	0.726921	0.157085	0.948308	0.230367	-0.134283	-0.367739	0.949506	-0.327608	0	0	-0.216336	-0.0529286	-0.264487	0.52956	-0.0492667	0	0	-0.493673	0.165151	-0.0290158	-0.219439	-0.675232	0.593944	0.970451	0.708402	0	0	-0.174435	-0.089849	-0.182086	0.638314	1.5708	0	0
0.03	2.96044	1.33116	-1.26177	0.72663	0.165237	0.947263	0.243868	-0.138286	-0.382563	0.910371	-0.322389	0	0	-0.223584	-0.0516952	-0.2612	0.524955	-0.0448414	0	0	-0.489326	0.165266	-0.0295053	-0.21865	-0.674609	0.596186	0.969068	0.699503	0	0	-0.167974	-0.0908507	-0.178309	0.632	1.5708	0	0
0.04	2.96452	1.33699	-1.26278	0.726354	0.173446	0.946049	0.256821	-0.143187	-0.400169	0.870684	-0.315196	0	0	-0.229408	-0.0497992	-0.256891	0.520911	-0.0398671	0	0	-0.483887	0.164909	-0.0296474	-0.21971	-0.672478	0.594384	0.966769	0.693461	0	0	-0.161003	-0.0920221	-0.173586	0.62453	1.5708	0	0
0.05	2.96944	1.34368	-1.26453	0.726089	0.1817	0.944703	0.269265	-0.14876	-0.42091	0.830142	-0.30586	0	0	-0.233934	-0.0474614	-0.252738	0.517626	-0.0347542	0	0	-0.477499	0.164277	-0.028968	-0.221775	-0.669749	0.59195	0.963717	0.69176	0	0	-0.153131	-0.093668	-0.166424	0.615626	1.5708	0	0
0.06	2.97435	1.35074	-1.26632	0.725887	0.190031	0.943235	0.280805	-0.154125	-0.444492	0.788784	-0.291674	0	0	-0.237679	-0.0453498	-0.249611	0.515291	-0.0297742	0	0	-0.470641	0.163638	-0.0276532	-0.22539	-0.66645	0.586755	0.960781	0.692402	0	0	-0.144992	-0.0951972	-0.158876	0.606337	1.5708	0	0
0.07	2.97918	1.35781	-1.26778	0.725761	0.198509	0.94165	0.289778	-0.158445	-0.47164	0.745199	-0.273063	0	0	-0.241248	-0.0438336	-0.247487	0.513692	-0.0247322	0	0	-0.463558	0.163133	-0.026335	-0.230942	-0.662324	0.577582	0.958464	0.694667	0	0	-0.137125	-0.096614	-0.151665	0.597266	1.5708	0	0
0.08	2.98318	1.36511	-1.26838	0.725713	0.207097	0.939974	0.298261	-0.162405	-0.502374	0.702662	-0.256457	0	0	-0.24449	-0.0427455	-0.245799	0.512496	-0.0198858	0	0	-0.455989	0.162758	-0.0247845	-0.238231	-0.657153	0.564884	0.956402	0.698143	0	0	-0.129411	-0.0981862	-0.144014	0.588198	1.5708	0	0
0.09	2.98906	1.37341	-1.2719	0.725831	0.215794	0.93815	0.30855	-0.166729	-0.533836	0.664499	-0.243203	0	0	-0.246876	-0.0408658	-0.245087	0.511823	-0.0152949	0	0	-0.447426	0.160996	-0.0222335	-0.246075	-0.651119	0.55161	0.953799	0.703741	0	0	-0.122381	-0.100894	-0.133142	0.579132	1.5708	0	0
0.1	2.99909	1.38504	-1.28073	0.725794	0.224544	0.936128	0.325479	-0.181648	-0.589287	0.64731	-0.233007	0	0	-0.24578	-0.0357838	-0.242603	0.511796	-0.0104094	0	0	-0.434197	0.158607	-0.0119289	-0.266592	-0.64184	0.520075	0.952392	0.718948	0	0	-0.105989	-0.103336	-0.110431	0.555772	1.5708	0	0
0.11	3.00495	1.38957	-1.28414	0.726413	0.23373	0.934518	0.328318	-0.176537	-0.605161	0.605349	-0.21697	0	0	-0.252359	-0.0368997	-0.243592	0.511896	-0.00661696	0	0	-0.42924	0.157612	-0.00942789	-0.275044	-0.634627	0.505585	0.950881	0.725789	0	0	-0.099851	-0.105958	-0.10233	0.547918	1.5708	0	0
0.12	2.97483	1.39752	-1.25504	0.726044	0.243016	0.93297	0.338074	-0.17415	-0.640086	0.578526	-0.211073	0	0	-0.253573	-0.0404519	-0.247457	0.512478	-0.00224507	0	0	-0.4123	0.168362	0.0384307	-0.353561	-0.606491	0.382368	0.961527	0.783609	0	0	-0.0417752	-0.102505	-0.0288278	0.463421	1.5708	0	0
0.13	2.98404	1.39786	-1.26068	0.726328	0.251265	0.931761	0.339411	-0.177676	-0.671645	0.564583	-0.201663	0	0	-0.261176	-0.0408806	-0.240674	0.51631	0.00101362	0	0	-0.370687	0.168812	0.180058	-0.517118	-0.506907	0.148933	0.953391	0.876701	0	0	0.224512	-0.0250423	0.181664	0.000346308	1.5708	0	0
0.14	2.99405	1.39753	-1.26923	0.726891	0.260035	0.930402	0.340109	-0.1798	-0.692052	0.558046	-0.196272	0	0	-0.270255	-0.0419129	-0.239435	0.519858	0.00178831	0	0	-0.369865	0.165008	0.189391	-0.520706	-0.499415	0.145337	0.947225	0.8766	0	0	0.243687	-0.0185704	0.193972	0	1.5708	0	0
0.15	2.99863	1.39829	-1.27154	0.727325	0.269157	0.929044	0.339624	-0.180173	-0.698132	0.552452	-0.190378	0	0	-0.277581	-0.0433582	-0.235017	0.524364	0.00327526	0	0	-0.36907	0.163923	0.196519	-0.525169	-0.492705	0.139751	0.943239	0.876246	0	0	0.248978	-0.0170948	0.206531	0	1.5708	0	0
0.16	3.00071	1.39951	-1.27148	0.727636	0.278476	0.927759	0.337838	-0.178246	-0.698132	0.547063	-0.186198	0	0	-0.284113	-0.0443672	-0.229388	0.528912	0.00486633	0	0	-0.36809	0.163922	0.20018	-0.528642	-0.487357	0.13385	0.941132	0.876593	0	0	0.251577	-0.016405	0.216724	0	1.5708	0	0
0.17	3.02358	1.40069	-1.28909	0.728643	0.287851	0.926576	0.334379	-0.179109	-0.698132	0.547234	-0.183856	0	0	-0.29487	-0.0428886	-0.212146	0.506506	0.0221922	0	0	-0.367549	0.160523	0.199694	-0.53119	-0.479457	0.128017	0.940089	0.877205	0	0	0.254995	-0.0183011	0.224459	0	1.5708	0	0
0.18	3.00292	1.39429	-1.26908	0.728287	0.297842	0.926379	0.32307	-0.169583	-0.698132	0.548733	-0.187791	0	0	-0.306812	-0.0479636	-0.21218	0.533743	0.0128716	0	0	-0.373124	0.167233	0.204171	-0.535648	-0.477275	0.11874	0.939978	0.880308	0	0	0.253969	-0.0158244	0.232698	0	1.5708	0	0
0.19	3.01707	1.39194	-1.27741	0.729259	0.307661	0.925652	0.314671	-0.166391	-0.698132	0.557356	-0.192024	0	0	-0.320224	-0.0507501	-0.197327	0.51407	0.0255223	0	0	-0.375196	0.167198	0.202363	-0.539602	-0.471161	0.113052	0.942126	0.882342	0	0	0.255961	-0.0176642	0.237281	0	1.5708	0	0
0.2	3.01214	1.38654	-1.26816	0.729485	0.317791	0.925285	0.303308	-0.159669	-0.698132	0.569591	-0.199078	0	0	-0.334107	-0.0552958	-0.184479	0.51656	0.0335669	0	0	-0.379497	0.172329	0.202053	-0.546159	-0.46645	0.102582	0.946177	0.886267	0	0	0.256226	-0.0174637	0.242438	0	1.5708	0	0
0.21	2.99968	1.38224	-1.25244	0.729822	0.328113	0.924851	0.294513	-0.151698	-0.698132	0.582238	-0.204759	0	0	-0.345226	-0.0615547	-0.174921	0.523758	0.0363913	0	0	-0.382584	0.178735	0.202279	-0.554501	-0.461042	0.0883288	0.95254	0.892332	0	0	0.255588	-0.0172907	0.246296	0	1.5708	0	0
0.22	2.98087	1.38133	-1.23313	0.729948	0.33832	0.924296	0.293971	-0.151123	-0.698132	0.606528	-0.2128	0	0	-0.344859	-0.0674299	-0.178148	0.566002	-0.00181866	0	0	-0.383606	0.185312	0.204149	-0.564492	-0.451371	0.0608054	0.959422	0.916406	0	0	0.254147	-0.0161849	0.248399	0	1.5708	0	0
0.23	2.96145	1.37843	-1.21202	0.730562	0.349126	0.924397	0.289559	-0.143114	-0.698132	0.614139	-0.228162	0	0	-0.360044	-0.0725374	-0.157694	0.540476	0.0277536	0	0	-0.384849	0.191699	0.201598	-0.568637	-0.442228	0.0422913	0.961391	0.939654	0	0	0.25104	-0.0175998	0.244735	0	1.5708	0	0
0.24	2.93372	1.37717	-1.18214	0.731051	0.360217	0.924468	0.286728	-0.133829	-0.698132	0.618135	-0.249828	0	0	-0.364716	-0.0806421	-0.149412	0.550806	0.0197401	0	0	-0.38283	0.199437	0.197424	-0.572231	-0.435442	0.0280028	0.963	0.960922	0	0	0.24638	-0.0192338	0.239829	0	1.5708	0	0
0.25	2.90437	1.37692	-1.15029	0.731577	0.371628	0.924625	0.282768	-0.123236	-0.698132	0.617578	-0.271444	0	0	-0.366972	-0.0886552	-0.139232	0.562713	0.00954348	0	0	-0.378412	0.206901	0.191779	-0.574098	-0.430924	0.0201454	0.962601	0.979058	0	0	0.240058	-0.0214864	0.236172	0	1.5708	0	0
0.26	2.87586	1.37738	-1.11882	0.732148	0.383292	0.924785	0.277815	-0.112871	-0.698132	0.616308	-0.290464	0	0	-0.366852	-0.0961928	-0.127527	0.577053	-0.00241877	0	0	-0.372548	0.213908	0.18495	-0.575511	-0.427085	0.015379	0.961635	0.9919	0	0	0.233182	-0.0241164	0.231267	0	1.5708	0	0
0.27	2.84881	1.37809	-1.08849	0.732752	0.395211	0.924939	0.2723	-0.103551	-0.698132	0.616669	-0.305041	0	0	-0.364681	-0.103091	-0.1141	0.594395	-0.0162385	0	0	-0.365718	0.220509	0.176905	-0.576834	-0.423864	0.0130811	0.960629	1.00057	0	0	0.225751	-0.0272074	0.224856	0	1.5708	0	0
0.28	2.8217	1.37929	-1.0579	0.733344	0.407265	0.925077	0.267398	-0.0949842	-0.698132	0.619004	-0.316693	0	0	-0.359751	-0.108867	-0.097059	0.615289	-0.0308029	0	0	-0.357919	0.226709	0.167896	-0.578107	-0.42179	0.0127161	0.959806	1.00924	0	0	0.218121	-0.0304004	0.216179	0	1.5708	0	0
0.29	2.7927	1.38014	-1.02555	0.733905	0.419373	0.925281	0.2625	-0.0858552	-0.698132	0.622321	-0.324501	0	0	-0.352434	-0.114108	-0.0773694	0.64061	-0.0468008	0	0	-0.349915	0.233161	0.159548	-0.580241	-0.420926	0.0137034	0.95983	1.01487	0	0	0.210082	-0.0334419	0.209983	0	1.5708	0	0
0.3	2.76526	1.37923	-0.995112	0.734463	0.431461	0.925708	0.255446	-0.0757111	-0.698132	0.625888	-0.328187	0	0	-0.344369	-0.118893	-0.055153	0.670395	-0.0659775	0	0	-0.343478	0.240013	0.153101	-0.583948	-0.420612	0.0144948	0.961297	1.0185	0	0	0.202186	-0.0361804	0.208334	0	1.5708	0	0
0.31	2.73956	1.37638	-0.967417	0.735081	0.443458	0.926453	0.245476	-0.0652136	-0.698132	0.627344	-0.332873	0	0	-0.335612	-0.123169	-0.0301838	0.70491	-0.0895357	0	0	-0.339162	0.247386	0.14893	-0.588844	-0.420618	0.0141107	0.96427	1.0215	0	0	0.195143	-0.0382739	0.207531	0	1.5708	0	0
0.32	2.53764	1.36132	-0.773936	0.735676	0.457821	0.921815	0.251009	-0.017272	-0.698132	0.635796	-0.32344	0	0	-0.222171	-0.271577	-0.280911	0.940853	-0.191168	0	0	-0.316326	0.300222	0.178422	-0.652226	-0.422429	-0.0300232	1.01796	1.01829	0	0	0.185795	-0.0265297	0.215106	0	1.5708	0	0
0.33	2.56803	1.36034	-0.805695	0.737105	0.469183	0.924524	0.23302	-0.0146566	-0.698132	0.632303	-0.323007	0	0	-0.241225	-0.228425	-0.180588	0.914024	-0.201962	0	0	-0.320794	0.293014	0.175864	-0.644188	-0.418165	-0.0251899	1.00792	1.02124	0	0	0.182692	-0.031079	0.213863	0	1.5708	0	0
0.34	2.57344	1.35383	-0.81288	0.738304	0.480769	0.925955	0.213904	-0.00547404	-0.698132	0.630101	-0.318974	0	0	-0.233626	-0.224875	-0.143602	0.945636	-0.229547	0	0	-0.324342	0.296719	0.178174	-0.649793	-0.417044	-0.0272633	1.0127	1.02509	0	0	0.179599	-0.0326615	0.213284	0	1.5708	0	0
0.35	2.60169	1.35028	-0.845414	0.73963	0.491952	0.928173	0.193914	-0.00370652	-0.698132	0.629268	-0.316235	0	0	-0.244562	-0.196416	-0.0711114	0.943572	-0.244641	0	0	-0.330698	0.292278	0.180666	-0.648819	-0.415716	-0.025346	1.01137	1.02752	0	0	0.176641	-0.0354621	0.212812	0	1.5708	0	0
0.36	2.63606	1.34369	-0.885032	0.740827	0.503003	0.930405	0.169489	-0.00264697	-0.698132	0.628977	-0.312456	0	0	-0.255965	-0.176682	-0.0179319	0.948127	-0.26124	0	0	-0.340793	0.288688	0.185824	-0.65061	-0.415349	-0.0249192	1.01321	1.02922	0	0	0.17481	-0.0371722	0.213031	0	1.5708	0	0
0.37	2.64308	1.33521	-0.897124	0.741859	0.513887	0.931542	0.147066	0.00428264	-0.698132	0.628767	-0.306035	0	0	-0.243697	-0.172773	0.00715095	0.992553	-0.282092	0	0	-0.348531	0.293182	0.195778	-0.661812	-0.415809	-0.0309149	1.02398	1.02967	0	0	0.174651	-0.0360933	0.21371	0	1.5708	0	0
